<?xml version="1.0" standalone="no"?>
<!DOCTYPE svg PUBLIC "-//W3C//DTD SVG 20010904//EN"
 "http://www.w3.org/TR/2001/REC-SVG-20010904/DTD/svg10.dtd">
<svg version="1.0" xmlns="http://www.w3.org/2000/svg"
 width="512.000000pt" height="512.000000pt" viewBox="0 0 512.000000 512.000000"
 preserveAspectRatio="xMidYMid meet">

<g transform="translate(0.000000,512.000000) scale(0.100000,-0.100000)"
fill="#000000" stroke="none">
<path d="M4441 5098 c-11 -29 -5 -46 28 -81 l25 -27 -36 -37 -36 -36 -32 26
c-38 32 -85 36 -100 8 -15 -29 -13 -37 22 -76 l31 -36 -36 -36 -35 -36 -32 26
c-38 32 -85 36 -100 8 -15 -29 -13 -37 20 -75 l31 -34 -22 -41 c-16 -30 -20
-54 -17 -96 l3 -55 -768 -744 -768 -744 -104 49 c-156 75 -269 101 -435 102
-106 0 -152 -5 -215 -21 -168 -45 -320 -147 -420 -284 -23 -31 -65 -110 -94
-175 -28 -65 -74 -148 -101 -185 -90 -122 -235 -214 -385 -244 -344 -68 -450
-116 -610 -279 -113 -115 -185 -244 -232 -415 -23 -82 -26 -394 -5 -480 67
-274 177 -476 370 -674 205 -211 461 -346 746 -396 90 -15 295 -12 383 6 274
56 489 211 617 445 48 87 81 192 106 332 25 146 48 208 112 303 58 87 154 171
243 214 272 128 255 118 350 214 156 157 218 315 218 556 -1 166 -27 279 -102
435 l-49 104 744 768 744 768 57 -3 c43 -2 68 2 97 17 l39 20 34 -29 c37 -33
45 -35 74 -20 28 15 24 62 -8 100 l-26 32 36 35 36 36 36 -31 c39 -35 47 -37
76 -22 28 15 24 62 -8 100 l-26 32 36 36 37 36 27 -25 c35 -33 52 -39 81 -28
30 11 29 59 -2 96 -24 29 -24 31 -10 73 9 26 12 55 8 74 -15 71 -97 275 -118
295 -23 21 -236 104 -298 116 -22 4 -48 1 -72 -9 -37 -15 -39 -15 -68 9 -38
32 -85 34 -97 3z m342 -144 l125 -46 46 -125 c33 -89 43 -129 37 -141 -5 -9
-95 -101 -198 -204 -141 -141 -195 -188 -213 -188 -36 0 -330 294 -330 330 0
19 47 71 198 222 109 109 200 198 204 198 3 0 63 -21 131 -46z m-972 -1363
c-339 -350 -783 -807 -986 -1017 l-369 -381 -25 51 c-33 64 -122 154 -187 187
l-50 25 1015 986 1016 986 102 -101 101 -100 -617 -636z m-1527 -551 c76 -19
173 -58 228 -90 l27 -16 -234 -227 -233 -227 -65 0 c-106 0 -202 -40 -291
-121 -106 -97 -161 -256 -137 -401 32 -199 179 -346 379 -379 267 -44 520 165
523 430 l0 66 228 233 227 233 36 -73 c121 -247 127 -492 19 -713 -72 -146
-186 -246 -366 -320 -118 -48 -208 -109 -286 -193 -115 -123 -162 -226 -198
-429 -23 -134 -53 -225 -106 -318 -155 -275 -465 -425 -812 -393 -570 52
-1070 552 -1121 1121 -37 404 161 736 521 872 37 13 122 34 190 46 203 36 306
83 429 198 82 76 144 167 189 276 51 123 96 194 168 265 168 166 427 226 685
160z m-100 -695 c117 -59 188 -168 194 -297 9 -170 -88 -308 -251 -360 -255
-81 -516 171 -443 428 32 111 107 196 215 241 47 20 69 23 142 20 71 -2 96 -8
143 -32z"/>
<path d="M4502 4768 c-79 -79 -149 -154 -157 -168 -22 -44 10 -88 53 -73 9 3
86 74 170 157 132 131 152 155 152 182 0 33 -13 44 -53 44 -13 0 -72 -51 -165
-142z"/>
<path d="M4684 4568 c-83 -84 -154 -161 -157 -170 -15 -43 29 -75 73 -53 44
23 310 300 310 322 0 40 -11 53 -44 53 -27 0 -51 -20 -182 -152z"/>
<path d="M635 1240 l-80 -80 303 -302 302 -303 80 80 c44 44 80 84 80 90 0 13
-582 595 -595 595 -6 0 -46 -36 -90 -80z m533 -528 c-9 -11 -56 32 -239 214
-182 182 -226 231 -217 242 9 11 56 -32 239 -214 182 -182 226 -231 217 -242z"/>
<path d="M1961 2320 c-128 -27 -220 -137 -229 -275 -5 -93 21 -164 85 -228
148 -148 401 -100 486 92 46 103 17 249 -64 330 -66 67 -183 100 -278 81z
m123 -102 c56 -17 119 -82 135 -140 32 -113 -51 -234 -168 -246 -243 -23 -307
317 -73 388 39 12 60 11 106 -2z"/>
</g>
</svg>
